<?xml version="1.0" standalone="no"?>
<!DOCTYPE svg PUBLIC "-//W3C//DTD SVG 20010904//EN"
 "http://www.w3.org/TR/2001/REC-SVG-20010904/DTD/svg10.dtd">
<svg version="1.0" xmlns="http://www.w3.org/2000/svg"
 width="1459.000000pt" height="1459.000000pt" viewBox="0 0 1459.000000 1459.000000"
 preserveAspectRatio="xMidYMid meet">
<metadata>
Created by potrace 1.11, written by Peter Selinger 2001-2013
</metadata>
<g transform="translate(0.000000,1459.000000) scale(0.100000,-0.100000)"
fill="#000000" stroke="none">
<path d="M9013 14556 c-10 -13 -26 -35 -35 -47 -9 -13 -51 -71 -94 -129 -42
-58 -94 -127 -114 -155 -20 -27 -68 -93 -107 -145 -38 -52 -117 -160 -175
-240 -57 -80 -180 -248 -273 -375 -92 -126 -281 -385 -419 -574 -138 -188
-291 -398 -340 -465 -49 -66 -110 -150 -136 -186 -26 -36 -228 -312 -449 -615
-221 -302 -410 -561 -419 -573 -9 -13 -38 -52 -63 -85 -74 -101 -362 -496
-384 -527 -11 -16 -72 -100 -136 -187 -363 -495 -566 -772 -588 -804 -14 -20
-84 -116 -156 -213 -71 -98 -164 -224 -205 -281 -80 -110 -838 -1148 -950
-1300 -171 -232 -687 -939 -707 -968 -12 -18 -90 -124 -172 -237 -83 -113
-157 -214 -165 -225 -19 -26 -129 -176 -296 -403 -74 -100 -142 -193 -150
-205 -8 -13 -82 -114 -164 -226 -83 -114 -144 -206 -139 -210 6 -3 70 -62 143
-131 73 -69 150 -141 170 -160 21 -19 101 -95 179 -169 78 -74 151 -142 161
-151 11 -10 88 -82 172 -161 277 -262 303 -286 338 -319 50 -46 289 -271 465
-439 45 -42 148 -139 230 -216 82 -77 188 -176 234 -220 47 -44 123 -116 170
-160 47 -44 126 -118 175 -165 101 -96 108 -102 277 -260 67 -63 139 -131 159
-150 21 -19 92 -87 159 -150 67 -63 142 -133 165 -155 65 -62 306 -288 351
-330 22 -21 105 -99 184 -174 80 -75 159 -149 175 -165 82 -76 284 -266 326
-306 55 -54 324 -307 361 -341 42 -38 288 -270 334 -314 23 -22 98 -92 166
-156 68 -65 147 -139 175 -165 79 -77 231 -216 237 -218 4 -1 126 110 235 213
94 89 482 456 552 521 37 34 200 188 329 310 52 49 188 176 272 255 46 44 152
144 234 221 83 78 166 156 185 174 42 39 281 263 400 376 47 44 101 95 120
113 129 121 301 283 341 321 40 39 227 215 329 310 47 44 263 247 342 322 35
33 114 108 177 166 62 59 133 125 156 147 23 22 109 103 191 180 82 77 182
172 224 212 41 39 91 85 110 103 19 18 71 67 116 109 239 226 373 352 393 368
l22 18 -93 90 c-52 50 -130 124 -173 165 -44 41 -151 142 -237 223 -86 82
-167 158 -180 169 -13 11 -59 54 -103 96 -96 91 -203 192 -394 372 -79 74
-160 151 -181 170 -20 19 -97 91 -170 160 -73 69 -149 141 -169 160 -47 44
-293 276 -346 325 -66 62 -334 314 -419 395 -44 41 -87 82 -96 90 -9 8 -81 76
-161 151 -79 75 -160 151 -179 169 -112 103 -305 287 -384 365 l-91 90 1 3473
c0 1909 0 3472 -2 3472 -1 0 -11 -11 -21 -24z m-821 -4752 l1 -2178 -85 -81
c-124 -117 -356 -336 -387 -364 -22 -20 -191 -179 -346 -326 -126 -118 -295
-278 -330 -310 -43 -40 -115 -109 -351 -331 -82 -78 -165 -156 -184 -174 -19
-18 -91 -85 -160 -150 -69 -64 -141 -132 -160 -150 -19 -18 -98 -92 -175 -165
-77 -73 -155 -146 -172 -163 -39 -35 -39 -39 -12 -63 12 -10 83 -76 158 -147
75 -72 152 -144 171 -162 19 -18 100 -94 179 -169 80 -75 156 -147 171 -161
154 -144 320 -301 394 -371 50 -47 103 -97 117 -110 41 -38 264 -248 334 -314
34 -33 113 -107 175 -165 62 -58 130 -122 151 -143 21 -20 42 -37 47 -37 5 0
34 26 63 59 54 58 245 262 336 357 26 28 78 83 115 122 l67 70 -62 58 c-34 31
-126 118 -205 192 -78 75 -155 147 -170 160 -15 14 -94 88 -176 166 -82 78
-167 157 -187 176 -79 73 -286 269 -378 357 l-96 91 22 20 c13 11 80 73 149
138 69 66 147 139 173 163 101 95 317 298 355 334 23 22 70 66 106 100 36 33
128 120 205 193 77 73 160 151 185 174 53 49 304 286 334 315 51 48 51 48 88
13 33 -32 276 -260 349 -329 20 -19 96 -90 169 -159 73 -69 149 -140 169 -159
20 -19 92 -87 161 -152 69 -65 148 -139 176 -166 86 -81 297 -279 339 -318 22
-21 101 -95 175 -165 74 -70 151 -142 170 -160 39 -36 446 -419 526 -495 17
-16 90 -85 162 -153 l130 -123 -55 -52 c-31 -29 -74 -70 -98 -92 -23 -22 -98
-92 -166 -156 -68 -64 -142 -134 -164 -154 -22 -21 -101 -95 -175 -165 -74
-71 -155 -147 -180 -170 -25 -23 -101 -95 -170 -160 -69 -64 -143 -134 -165
-155 -22 -20 -74 -69 -115 -108 -42 -40 -143 -135 -225 -212 -81 -77 -160
-151 -175 -165 -15 -14 -89 -84 -166 -156 -76 -72 -155 -146 -174 -164 -29
-27 -163 -153 -335 -315 -17 -16 -101 -95 -185 -175 -85 -80 -170 -161 -191
-180 -20 -19 -68 -64 -105 -99 -38 -35 -105 -98 -149 -140 -45 -42 -143 -134
-219 -206 -76 -71 -160 -150 -186 -175 -26 -25 -58 -55 -72 -67 l-24 -22 -59
55 c-33 31 -116 109 -185 174 -69 65 -145 137 -170 160 -74 69 -301 282 -344
323 -128 121 -295 279 -321 303 -17 16 -98 93 -180 170 -83 78 -166 156 -185
174 -19 18 -91 85 -160 150 -69 65 -145 137 -170 160 -51 48 -274 259 -336
317 -22 21 -99 93 -170 160 -71 66 -147 138 -170 160 -52 49 -293 276 -347
327 -23 21 -109 102 -191 180 -82 78 -158 149 -170 159 -11 10 -55 51 -96 90
-42 40 -140 133 -219 207 -79 74 -170 160 -202 190 -57 54 -251 237 -319 300
-19 18 -93 88 -165 155 -71 68 -153 145 -182 171 l-52 49 150 205 c82 113 163
223 180 245 17 22 103 139 190 260 88 121 167 229 175 240 109 147 541 739
559 765 21 31 917 1256 965 1320 10 14 63 86 116 160 54 74 102 137 106 138 4
2 8 8 8 13 0 6 4 15 10 22 26 32 65 84 165 222 60 83 157 215 215 295 59 80
444 606 855 1170 412 564 839 1149 950 1300 110 151 211 290 224 308 13 18 25
31 28 28 3 -3 5 -985 5 -2182z"/>
</g>
</svg>
